<svg width="1080" height="630" viewBox="0 0 1080 630" fill="none" xmlns="http://www.w3.org/2000/svg">
<g filter="url(#filter0_d_18_63)">
<mask id="path-1-outside-1_18_63" maskUnits="userSpaceOnUse" x="124" y="197" width="361" height="236" fill="black">
<rect fill="white" x="124" y="197" width="361" height="236"/>
<path d="M231 207.18C233.147 207.061 235.314 207 237.5 207C264.163 207 288.104 215.98 304.5 230.228C320.896 215.98 344.837 207 371.5 207C373.686 207 375.853 207.061 378 207.18V207H405C443.66 207 475 238.34 475 277V423H378V304.994C377.924 304.939 377.847 304.888 377.771 304.834C376.605 298.099 371.108 293 364.5 293C357.044 293 351 299.492 351 307.5C351 307.843 351.011 308.184 351.033 308.521C351.022 308.533 351.011 308.545 351 308.557V423H259V309.645C258.956 309.595 258.911 309.546 258.867 309.497C258.954 308.844 259 308.178 259 307.5C259 299.492 252.732 293 245 293C238.15 293 232.448 298.096 231.237 304.827C231.158 304.883 231.079 304.937 231 304.994V423H134V277C134 238.34 165.34 207 204 207H231V207.18Z"/>
</mask>
<path d="M231 207.18C233.147 207.061 235.314 207 237.5 207C264.163 207 288.104 215.98 304.5 230.228C320.896 215.98 344.837 207 371.5 207C373.686 207 375.853 207.061 378 207.18V207H405C443.66 207 475 238.34 475 277V423H378V304.994C377.924 304.939 377.847 304.888 377.771 304.834C376.605 298.099 371.108 293 364.5 293C357.044 293 351 299.492 351 307.5C351 307.843 351.011 308.184 351.033 308.521C351.022 308.533 351.011 308.545 351 308.557V423H259V309.645C258.956 309.595 258.911 309.546 258.867 309.497C258.954 308.844 259 308.178 259 307.5C259 299.492 252.732 293 245 293C238.15 293 232.448 298.096 231.237 304.827C231.158 304.883 231.079 304.937 231 304.994V423H134V277C134 238.34 165.34 207 204 207H231V207.18Z" fill="#FF9899"/>
<path d="M231 207.18H221V217.748L231.552 217.164L231 207.18ZM304.5 230.228L297.941 237.776L304.5 243.475L311.059 237.776L304.5 230.228ZM378 207.18L377.448 217.164L388 217.748V207.18H378ZM378 207V197H368V207H378ZM475 277H485H475ZM475 423V433H485V423H475ZM378 423H368V433H378V423ZM378 304.994H388V299.885L383.86 296.891L378 304.994ZM377.771 304.834L367.917 306.539L368.622 310.614L371.999 313L377.771 304.834ZM351.033 308.521L358.244 315.45L361.297 312.272L361.012 307.875L351.033 308.521ZM351 308.557L343.779 301.638L341 304.539V308.557H351ZM351 423V433H361V423H351ZM259 423H249V433H259V423ZM259 309.645H269V305.864L266.498 303.028L259 309.645ZM258.867 309.497L248.954 308.179L248.349 312.728L251.404 316.153L258.867 309.497ZM231.237 304.827L237.006 312.996L240.354 310.632L241.079 306.598L231.237 304.827ZM231 304.994L225.14 296.891L221 299.885V304.994H231ZM231 423V433H241V423H231ZM134 423H124V433H134V423ZM134 277H124H134ZM231 207H241V197H231V207ZM231 207.18L231.552 217.164C233.517 217.056 235.5 217 237.5 217V207V197C235.128 197 232.776 197.066 230.448 197.195L231 207.18ZM237.5 207V217C262.005 217 283.546 225.267 297.941 237.776L304.5 230.228L311.059 222.679C292.661 206.692 266.321 197 237.5 197V207ZM304.5 230.228L311.059 237.776C325.454 225.267 346.995 217 371.5 217V207V197C342.679 197 316.339 206.692 297.941 222.679L304.5 230.228ZM371.5 207V217C373.5 217 375.483 217.056 377.448 217.164L378 207.18L378.552 197.195C376.224 197.066 373.872 197 371.5 197V207ZM378 207.18H388V207H378H368V207.18H378ZM378 207V217H405V207V197H378V207ZM405 207V217C438.137 217 465 243.863 465 277H475H485C485 232.817 449.183 197 405 197V207ZM475 277H465V423H475H485V277H475ZM475 423V413H378V423V433H475V423ZM378 423H388V304.994H378H368V423H378ZM378 304.994L383.86 296.891C383.724 296.793 383.606 296.711 383.562 296.681C383.527 296.657 383.528 296.658 383.517 296.65C383.512 296.647 383.523 296.654 383.542 296.668L377.771 304.834L371.999 313C372.056 313.041 372.105 313.075 372.139 313.098C372.156 313.11 372.172 313.121 372.183 313.128C372.197 313.138 372.201 313.141 372.209 313.147C372.223 313.156 372.219 313.153 372.209 313.147C372.199 313.139 372.174 313.122 372.14 313.097L378 304.994ZM377.771 304.834L387.624 303.129C385.733 292.202 376.559 283 364.5 283V293V303C365.657 303 367.477 303.997 367.917 306.539L377.771 304.834ZM364.5 293V283C350.86 283 341 294.654 341 307.5H351H361C361 304.33 363.228 303 364.5 303V293ZM351 307.5H341C341 308.064 341.019 308.62 341.054 309.168L351.033 308.521L361.012 307.875C361.004 307.748 361 307.623 361 307.5H351ZM351.033 308.521L343.822 301.593C343.792 301.625 343.767 301.651 343.75 301.669C343.735 301.685 343.722 301.699 343.72 301.701C343.717 301.704 343.718 301.703 343.719 301.702C343.721 301.7 343.724 301.696 343.729 301.691C343.738 301.681 343.756 301.662 343.779 301.638L351 308.557L358.221 315.475C358.249 315.445 358.273 315.42 358.288 315.404C358.295 315.396 358.301 315.39 358.306 315.385C358.309 315.381 358.313 315.377 358.314 315.377C358.315 315.375 358.314 315.377 358.312 315.379C358.309 315.381 358.305 315.386 358.299 315.392C358.288 315.403 358.269 315.424 358.244 315.45L351.033 308.521ZM351 308.557H341V423H351H361V308.557H351ZM351 423V413H259V423V433H351V423ZM259 423H269V309.645H259H249V423H259ZM259 309.645L266.498 303.028C266.426 302.946 266.362 302.876 266.339 302.85C266.322 302.831 266.32 302.829 266.316 302.825C266.313 302.822 266.32 302.829 266.33 302.841L258.867 309.497L251.404 316.153C251.437 316.19 251.465 316.221 251.485 316.243C251.503 316.263 251.523 316.285 251.528 316.291C251.538 316.301 251.537 316.301 251.534 316.297C251.53 316.292 251.518 316.279 251.502 316.261L259 309.645ZM258.867 309.497L268.78 310.816C268.923 309.738 269 308.63 269 307.5H259H249C249 307.725 248.985 307.951 248.954 308.179L258.867 309.497ZM259 307.5H269C269 294.303 258.583 283 245 283V293V303C246.881 303 249 304.681 249 307.5H259ZM245 293V283C232.979 283 223.403 291.895 221.395 303.056L231.237 304.827L241.079 306.598C241.493 304.296 243.321 303 245 303V293ZM231.237 304.827L225.469 296.658C225.47 296.657 225.467 296.66 225.454 296.669C225.447 296.674 225.44 296.679 225.429 296.686C225.419 296.693 225.407 296.702 225.393 296.711C225.343 296.746 225.249 296.813 225.14 296.891L231 304.994L236.86 313.097C236.83 313.119 236.815 313.129 236.844 313.109C236.85 313.105 236.857 313.1 236.867 313.093C236.877 313.086 236.889 313.077 236.902 313.068C236.928 313.05 236.965 313.025 237.006 312.996L231.237 304.827ZM231 304.994H221V423H231H241V304.994H231ZM231 423V413H134V423V433H231V423ZM134 423H144V277H134H124V423H134ZM134 277H144C144 243.863 170.863 217 204 217V207V197C159.817 197 124 232.817 124 277H134ZM204 207V217H231V207V197H204V207ZM231 207H221V207.18H231H241V207H231Z" fill="#B64F50" mask="url(#path-1-outside-1_18_63)"/>
</g>
<path d="M214 207.18C216.147 207.061 218.314 207 220.5 207C247.163 207 271.104 215.98 287.5 230.228C303.896 215.98 327.837 207 354.5 207C356.686 207 358.853 207.061 361 207.18V207H388C426.66 207 458 238.34 458 277V423H361V304.994C360.924 304.939 360.847 304.888 360.771 304.834C359.605 298.099 354.108 293 347.5 293C340.044 293 334 299.492 334 307.5C334 307.843 334.011 308.184 334.033 308.521C334.022 308.533 334.011 308.545 334 308.557V423H242V309.645C241.956 309.595 241.911 309.546 241.867 309.497C241.954 308.844 242 308.178 242 307.5C242 299.492 235.732 293 228 293C221.15 293 215.448 298.096 214.237 304.827C214.158 304.883 214.079 304.937 214 304.994V423H117V277C117 238.34 148.34 207 187 207H214V207.18Z" fill="#D47071"/>
<g filter="url(#filter1_d_18_63)">
<mask id="path-4-outside-2_18_63" maskUnits="userSpaceOnUse" x="531" y="197" width="361" height="236" fill="black">
<rect fill="white" x="531" y="197" width="361" height="236"/>
<path d="M638 207.18C640.147 207.061 642.314 207 644.5 207C671.163 207 695.104 215.98 711.5 230.228C727.896 215.98 751.837 207 778.5 207C780.686 207 782.853 207.061 785 207.18V207H812C850.66 207 882 238.34 882 277V423H785V304.994C784.924 304.939 784.847 304.888 784.771 304.834C783.605 298.099 778.108 293 771.5 293C764.044 293 758 299.492 758 307.5C758 307.843 758.011 308.184 758.033 308.521C758.022 308.533 758.011 308.545 758 308.557V423H666V309.645C665.956 309.595 665.911 309.546 665.867 309.497C665.954 308.844 666 308.178 666 307.5C666 299.492 659.732 293 652 293C645.15 293 639.448 298.096 638.237 304.827C638.158 304.883 638.079 304.937 638 304.994V423H541V277C541 238.34 572.34 207 611 207H638V207.18Z"/>
</mask>
<path d="M638 207.18C640.147 207.061 642.314 207 644.5 207C671.163 207 695.104 215.98 711.5 230.228C727.896 215.98 751.837 207 778.5 207C780.686 207 782.853 207.061 785 207.18V207H812C850.66 207 882 238.34 882 277V423H785V304.994C784.924 304.939 784.847 304.888 784.771 304.834C783.605 298.099 778.108 293 771.5 293C764.044 293 758 299.492 758 307.5C758 307.843 758.011 308.184 758.033 308.521C758.022 308.533 758.011 308.545 758 308.557V423H666V309.645C665.956 309.595 665.911 309.546 665.867 309.497C665.954 308.844 666 308.178 666 307.5C666 299.492 659.732 293 652 293C645.15 293 639.448 298.096 638.237 304.827C638.158 304.883 638.079 304.937 638 304.994V423H541V277C541 238.34 572.34 207 611 207H638V207.18Z" fill="#FF9899"/>
<path d="M638 207.18H628V217.748L638.552 217.164L638 207.18ZM711.5 230.228L704.941 237.776L711.5 243.475L718.059 237.776L711.5 230.228ZM785 207.18L784.448 217.164L795 217.748V207.18H785ZM785 207V197H775V207H785ZM882 277H892H882ZM882 423V433H892V423H882ZM785 423H775V433H785V423ZM785 304.994H795V299.885L790.86 296.891L785 304.994ZM784.771 304.834L774.917 306.539L775.622 310.614L778.999 313L784.771 304.834ZM758.033 308.521L765.244 315.45L768.297 312.272L768.012 307.875L758.033 308.521ZM758 308.557L750.779 301.638L748 304.539V308.557H758ZM758 423V433H768V423H758ZM666 423H656V433H666V423ZM666 309.645H676V305.864L673.498 303.028L666 309.645ZM665.867 309.497L655.954 308.179L655.349 312.728L658.404 316.153L665.867 309.497ZM638.237 304.827L644.006 312.996L647.354 310.632L648.079 306.598L638.237 304.827ZM638 304.994L632.14 296.891L628 299.885V304.994H638ZM638 423V433H648V423H638ZM541 423H531V433H541V423ZM541 277H531H541ZM638 207H648V197H638V207ZM638 207.18L638.552 217.164C640.517 217.056 642.5 217 644.5 217V207V197C642.128 197 639.776 197.066 637.448 197.195L638 207.18ZM644.5 207V217C669.005 217 690.546 225.267 704.941 237.776L711.5 230.228L718.059 222.679C699.661 206.692 673.321 197 644.5 197V207ZM711.5 230.228L718.059 237.776C732.454 225.267 753.995 217 778.5 217V207V197C749.679 197 723.339 206.692 704.941 222.679L711.5 230.228ZM778.5 207V217C780.5 217 782.483 217.056 784.448 217.164L785 207.18L785.552 197.195C783.224 197.066 780.872 197 778.5 197V207ZM785 207.18H795V207H785H775V207.18H785ZM785 207V217H812V207V197H785V207ZM812 207V217C845.137 217 872 243.863 872 277H882H892C892 232.817 856.183 197 812 197V207ZM882 277H872V423H882H892V277H882ZM882 423V413H785V423V433H882V423ZM785 423H795V304.994H785H775V423H785ZM785 304.994L790.86 296.891C790.724 296.793 790.606 296.711 790.562 296.681C790.527 296.657 790.528 296.658 790.517 296.65C790.512 296.647 790.523 296.654 790.542 296.668L784.771 304.834L778.999 313C779.056 313.041 779.105 313.075 779.139 313.098C779.156 313.11 779.172 313.121 779.183 313.128C779.197 313.138 779.201 313.141 779.209 313.147C779.223 313.156 779.219 313.153 779.209 313.147C779.199 313.139 779.174 313.122 779.14 313.097L785 304.994ZM784.771 304.834L794.624 303.129C792.733 292.202 783.559 283 771.5 283V293V303C772.657 303 774.477 303.997 774.917 306.539L784.771 304.834ZM771.5 293V283C757.86 283 748 294.654 748 307.5H758H768C768 304.33 770.228 303 771.5 303V293ZM758 307.5H748C748 308.064 748.019 308.62 748.054 309.168L758.033 308.521L768.012 307.875C768.004 307.748 768 307.623 768 307.5H758ZM758.033 308.521L750.822 301.593C750.792 301.625 750.767 301.651 750.75 301.669C750.735 301.685 750.722 301.699 750.72 301.701C750.717 301.704 750.718 301.703 750.719 301.702C750.721 301.7 750.724 301.696 750.729 301.691C750.738 301.681 750.756 301.662 750.779 301.638L758 308.557L765.221 315.475C765.249 315.445 765.273 315.42 765.288 315.404C765.295 315.396 765.301 315.39 765.306 315.385C765.309 315.381 765.313 315.377 765.314 315.377C765.315 315.375 765.314 315.377 765.312 315.379C765.309 315.381 765.305 315.386 765.299 315.392C765.288 315.403 765.269 315.424 765.244 315.45L758.033 308.521ZM758 308.557H748V423H758H768V308.557H758ZM758 423V413H666V423V433H758V423ZM666 423H676V309.645H666H656V423H666ZM666 309.645L673.498 303.028C673.426 302.946 673.362 302.876 673.339 302.85C673.322 302.831 673.32 302.829 673.316 302.825C673.313 302.822 673.32 302.829 673.33 302.841L665.867 309.497L658.404 316.153C658.437 316.19 658.465 316.221 658.485 316.243C658.503 316.263 658.523 316.285 658.528 316.291C658.538 316.301 658.537 316.301 658.534 316.297C658.53 316.292 658.518 316.279 658.502 316.261L666 309.645ZM665.867 309.497L675.78 310.816C675.923 309.738 676 308.63 676 307.5H666H656C656 307.725 655.985 307.951 655.954 308.179L665.867 309.497ZM666 307.5H676C676 294.303 665.583 283 652 283V293V303C653.881 303 656 304.681 656 307.5H666ZM652 293V283C639.979 283 630.403 291.895 628.395 303.056L638.237 304.827L648.079 306.598C648.493 304.296 650.321 303 652 303V293ZM638.237 304.827L632.469 296.658C632.47 296.657 632.467 296.66 632.454 296.669C632.447 296.674 632.44 296.679 632.429 296.686C632.419 296.693 632.407 296.702 632.393 296.711C632.343 296.746 632.249 296.813 632.14 296.891L638 304.994L643.86 313.097C643.83 313.119 643.815 313.129 643.844 313.109C643.85 313.105 643.857 313.1 643.867 313.093C643.877 313.086 643.889 313.077 643.902 313.068C643.928 313.05 643.965 313.025 644.006 312.996L638.237 304.827ZM638 304.994H628V423H638H648V304.994H638ZM638 423V413H541V423V433H638V423ZM541 423H551V277H541H531V423H541ZM541 277H551C551 243.863 577.863 217 611 217V207V197C566.817 197 531 232.817 531 277H541ZM611 207V217H638V207V197H611V207ZM638 207H628V207.18H638H648V207H638Z" fill="#B64F50" mask="url(#path-4-outside-2_18_63)"/>
</g>
<path d="M621 207.18C623.147 207.061 625.314 207 627.5 207C654.163 207 678.104 215.98 694.5 230.228C710.896 215.98 734.837 207 761.5 207C763.686 207 765.853 207.061 768 207.18V207H795C833.66 207 865 238.34 865 277V423H768V304.994C767.924 304.939 767.847 304.888 767.771 304.834C766.605 298.099 761.108 293 754.5 293C747.044 293 741 299.492 741 307.5C741 307.843 741.011 308.184 741.033 308.521C741.022 308.533 741.011 308.545 741 308.557V423H649V309.645C648.956 309.595 648.911 309.546 648.867 309.497C648.954 308.844 649 308.178 649 307.5C649 299.492 642.732 293 635 293C628.15 293 622.448 298.096 621.237 304.827C621.158 304.883 621.079 304.937 621 304.994V423H524V277C524 238.34 555.34 207 594 207H621V207.18Z" fill="#D47071"/>
<circle cx="505" cy="413" r="10" fill="#FF9899"/>
<circle cx="502" cy="413" r="10" fill="#D47071"/>
<rect x="5" y="5" width="990" height="620" stroke="#ED7E7E" stroke-width="10"/>
<defs>
<filter id="filter0_d_18_63" x="120" y="197" width="369" height="248" filterUnits="userSpaceOnUse" color-interpolation-filters="sRGB">
<feFlood flood-opacity="0" result="BackgroundImageFix"/>
<feColorMatrix in="SourceAlpha" type="matrix" values="0 0 0 0 0 0 0 0 0 0 0 0 0 0 0 0 0 0 127 0" result="hardAlpha"/>
<feOffset dy="8"/>
<feGaussianBlur stdDeviation="2"/>
<feComposite in2="hardAlpha" operator="out"/>
<feColorMatrix type="matrix" values="0 0 0 0 0 0 0 0 0 0 0 0 0 0 0 0 0 0 0.25 0"/>
<feBlend mode="normal" in2="BackgroundImageFix" result="effect1_dropShadow_18_63"/>
<feBlend mode="normal" in="SourceGraphic" in2="effect1_dropShadow_18_63" result="shape"/>
</filter>
<filter id="filter1_d_18_63" x="527" y="197" width="369" height="248" filterUnits="userSpaceOnUse" color-interpolation-filters="sRGB">
<feFlood flood-opacity="0" result="BackgroundImageFix"/>
<feColorMatrix in="SourceAlpha" type="matrix" values="0 0 0 0 0 0 0 0 0 0 0 0 0 0 0 0 0 0 127 0" result="hardAlpha"/>
<feOffset dy="8"/>
<feGaussianBlur stdDeviation="2"/>
<feComposite in2="hardAlpha" operator="out"/>
<feColorMatrix type="matrix" values="0 0 0 0 0 0 0 0 0 0 0 0 0 0 0 0 0 0 0.25 0"/>
<feBlend mode="normal" in2="BackgroundImageFix" result="effect1_dropShadow_18_63"/>
<feBlend mode="normal" in="SourceGraphic" in2="effect1_dropShadow_18_63" result="shape"/>
</filter>
</defs>
</svg>
